<svg xmlns="http://www.w3.org/2000/svg" width="100" height="134" fill="none"><circle cx="49" cy="51" r="36" fill="#F1F6FF"></circle><path fill="#fff" d="M59.264 18H30.5a4 4 0 0 0-4 4v55a4 4 0 0 0 4 4h41a4 4 0 0 0 4-4V35.08a4 4 0 0 0-1.079-2.733l-12.235-13.08A4 4 0 0 0 59.264 18Z"></path><path fill="#CFE0FF" d="M61 29.5V18l14.5 15.5H65a4 4 0 0 1-4-4Z"></path><rect width="4" height="4" x="80" y="24" fill="#EEF4FF" rx="2"></rect><rect width="3" height="3" x="83" y="14" fill="#EEF4FF" rx="1.5"></rect><rect width="3" height="3" x="13" y="25" fill="#EEF4FF" rx="1.5"></rect><rect width="5" height="5" x="1" y="59" fill="#EEF4FF" rx="2.5"></rect><path stroke="#C7C7C7" stroke-linecap="round" d="M32.5 26.5H55M32.5 31.5H42M44 72H32.5"></path><path fill="#CFE0FF" d="M76.222 81.222 62.5 67.5l4-4 13.335 14.224a2.515 2.515 0 0 1-3.613 3.498Z"></path><path fill="#CFE0FF" d="M72 53.5C72 64.822 62.822 74 51.5 74S31 64.822 31 53.5 40.178 33 51.5 33 72 42.178 72 53.5Zm-36.473 0c0 8.822 7.151 15.973 15.973 15.973 8.822 0 15.973-7.151 15.973-15.973 0-8.822-7.151-15.973-15.973-15.973-8.822 0-15.973 7.151-15.973 15.973Z"></path><path stroke="#C6C6C6" stroke-linecap="round" d="m57 48.5 3.5 2M45.5 48 42 50"></path><rect width="3" height="3" x="44" y="52" fill="#C6C6C6" rx="1.5"></rect><rect width="3" height="3" x="56" y="52" fill="#C6C6C6" rx="1.5"></rect><path stroke="#C6C6C6" stroke-linecap="round" d="M49 59c1.762-.45 2.733-.48 4.5 0"></path><path fill="#BABEC5" d="M39.408 111.692c0 .644-.104 1.236-.312 1.776-.204.536-.494 1-.87 1.392-.376.388-.826.69-1.35.906a4.54 4.54 0 0 1-1.746.324 4.57 4.57 0 0 1-1.746-.324 3.953 3.953 0 0 1-1.35-.906 4.21 4.21 0 0 1-.87-1.392 4.902 4.902 0 0 1-.312-1.776c0-.64.104-1.23.312-1.77a4.13 4.13 0 0 1 .87-1.392 3.911 3.911 0 0 1 1.35-.912c.528-.22 1.11-.33 1.746-.33.64 0 1.222.11 1.746.33.524.216.974.52 1.35.912.376.388.666.852.87 1.392.208.54.312 1.13.312 1.77Zm-1.308 0c0-.512-.07-.972-.21-1.38a2.916 2.916 0 0 0-.6-1.038 2.554 2.554 0 0 0-.936-.654 3.149 3.149 0 0 0-1.224-.228c-.452 0-.862.076-1.23.228-.364.152-.676.37-.936.654-.26.284-.46.63-.6 1.038-.14.408-.21.868-.21 1.38 0 .516.07.978.21 1.386.14.404.34.748.6 1.032.26.284.572.502.936.654a3.27 3.27 0 0 0 1.23.222c.452 0 .86-.074 1.224-.222.368-.152.68-.37.936-.654.26-.284.46-.628.6-1.032.14-.408.21-.87.21-1.386Zm10.941 0c0 .644-.104 1.236-.312 1.776-.204.536-.494 1-.87 1.392-.376.388-.826.69-1.35.906a4.54 4.54 0 0 1-1.746.324 4.57 4.57 0 0 1-1.746-.324 3.953 3.953 0 0 1-1.35-.906 4.21 4.21 0 0 1-.87-1.392 4.902 4.902 0 0 1-.312-1.776c0-.64.104-1.23.312-1.77a4.13 4.13 0 0 1 .87-1.392 3.911 3.911 0 0 1 1.35-.912c.528-.22 1.11-.33 1.746-.33.64 0 1.222.11 1.746.33.524.216.974.52 1.35.912.376.388.666.852.87 1.392.208.54.312 1.13.312 1.77Zm-1.308 0c0-.512-.07-.972-.21-1.38a2.916 2.916 0 0 0-.6-1.038 2.554 2.554 0 0 0-.936-.654 3.149 3.149 0 0 0-1.224-.228c-.452 0-.862.076-1.23.228-.364.152-.676.37-.936.654-.26.284-.46.63-.6 1.038-.14.408-.21.868-.21 1.38 0 .516.07.978.21 1.386.14.404.34.748.6 1.032.26.284.572.502.936.654a3.27 3.27 0 0 0 1.23.222c.452 0 .86-.074 1.224-.222.368-.152.68-.37.936-.654.26-.284.46-.628.6-1.032.14-.408.21-.87.21-1.386Zm5.523.126c.324 0 .608-.042.852-.126.248-.084.454-.202.618-.354.168-.156.294-.34.378-.552.084-.216.126-.454.126-.714 0-.524-.164-.936-.492-1.236-.324-.3-.818-.45-1.482-.45h-1.332v3.432h1.332Zm0-4.434c.552 0 1.032.064 1.44.192.408.128.746.31 1.014.546.268.232.466.514.594.846.132.332.198.7.198 1.104 0 .404-.07.776-.21 1.116a2.39 2.39 0 0 1-.618.87 2.859 2.859 0 0 1-1.02.57c-.404.132-.87.198-1.398.198h-1.332V116h-1.278v-8.616h2.61Zm9.114 1.404a.488.488 0 0 1-.126.15.278.278 0 0 1-.168.048.448.448 0 0 1-.246-.096 3.595 3.595 0 0 0-.348-.222 2.353 2.353 0 0 0-.492-.222 2.074 2.074 0 0 0-.69-.102c-.252 0-.474.034-.666.102a1.337 1.337 0 0 0-.474.27 1.125 1.125 0 0 0-.294.402 1.27 1.27 0 0 0-.096.498c0 .232.058.424.174.576.12.152.276.282.468.39.192.108.41.202.654.282.244.08.494.164.75.252.256.084.506.182.75.294.244.112.462.254.654.426.192.168.346.376.462.624.12.244.18.544.18.9 0 .38-.066.736-.198 1.068a2.475 2.475 0 0 1-.564.87 2.665 2.665 0 0 1-.918.588c-.36.14-.77.21-1.23.21-.276 0-.544-.028-.804-.084a3.952 3.952 0 0 1-.738-.222c-.232-.1-.45-.218-.654-.354-.2-.14-.38-.296-.54-.468l.366-.612a.512.512 0 0 1 .126-.12.325.325 0 0 1 .174-.048c.084 0 .18.044.288.132.112.088.248.186.408.294.164.104.358.2.582.288.228.088.504.132.828.132.264 0 .5-.034.708-.102.208-.072.382-.172.522-.3.144-.132.254-.29.33-.474.076-.184.114-.388.114-.612 0-.252-.058-.458-.174-.618a1.418 1.418 0 0 0-.462-.402c-.192-.108-.41-.2-.654-.276l-.75-.234a8.06 8.06 0 0 1-.75-.288 2.472 2.472 0 0 1-.654-.42 1.953 1.953 0 0 1-.462-.654c-.116-.264-.174-.588-.174-.972a2.303 2.303 0 0 1 .702-1.656c.232-.224.516-.402.852-.534a3.05 3.05 0 0 1 1.152-.204c.484 0 .928.078 1.332.234.408.152.762.372 1.062.66l-.312.606Zm3.203-1.404v3.432a11.367 11.367 0 0 1-.048 1.05c-.012.172-.028.35-.048.534l-.066.582h-.792a66.408 66.408 0 0 1-.12-1.116 24.21 24.21 0 0 1-.03-.522 11.367 11.367 0 0 1-.012-.528v-3.432h1.116Zm-1.368 7.914a.788.788 0 0 1 .228-.558.773.773 0 0 1 .252-.168.74.74 0 0 1 .312-.066c.108 0 .21.022.306.066a.773.773 0 0 1 .42.42.726.726 0 0 1 .066.306.74.74 0 0 1-.066.312.773.773 0 0 1-.726.48.773.773 0 0 1-.792-.792Zm-44.044 7.086V131h-.648a.534.534 0 0 1-.252-.054.761.761 0 0 1-.198-.174l-4.866-6.294c.008.108.014.214.018.318.008.104.012.202.012.294V131h-1.122v-8.616h.66c.112 0 .196.014.252.042a.516.516 0 0 1 .186.174l4.878 6.3a11.587 11.587 0 0 1-.03-.336 8.78 8.78 0 0 1-.006-.312v-5.868h1.116Zm4.302 2.424c.448 0 .852.074 1.212.222.364.144.672.354.924.63.256.272.452.602.588.99.136.384.204.816.204 1.296 0 .48-.068.914-.204 1.302a2.75 2.75 0 0 1-.588.99c-.252.272-.56.482-.924.63-.36.144-.764.216-1.212.216-.452 0-.86-.072-1.224-.216a2.619 2.619 0 0 1-.924-.63 2.82 2.82 0 0 1-.594-.99 3.918 3.918 0 0 1-.204-1.302c0-.48.068-.912.204-1.296a2.82 2.82 0 0 1 .594-.99c.256-.276.564-.486.924-.63a3.223 3.223 0 0 1 1.224-.222Zm0 5.364c.576 0 1.006-.194 1.29-.582.284-.388.426-.934.426-1.638 0-.704-.142-1.25-.426-1.638-.284-.392-.714-.588-1.29-.588-.584 0-1.02.196-1.308.588-.284.388-.426.934-.426 1.638 0 .704.142 1.25.426 1.638.288.388.724.582 1.308.582Zm11.2-3.792c-.193-.252-.4-.428-.625-.528-.22-.1-.468-.15-.744-.15-.536 0-.952.194-1.248.582-.292.384-.438.946-.438 1.686 0 .388.032.72.096.996.068.272.164.496.288.672.128.172.284.3.468.384.184.08.392.12.624.12.34 0 .634-.076.882-.228.248-.152.48-.366.696-.642v-2.892Zm1.175-4.236V131h-.708c-.164 0-.266-.078-.306-.234l-.102-.702c-.26.308-.556.556-.888.744a2.29 2.29 0 0 1-1.14.276c-.348 0-.664-.068-.948-.204a2.009 2.009 0 0 1-.72-.594c-.2-.264-.354-.59-.462-.978a5.004 5.004 0 0 1-.162-1.338c0-.452.06-.872.18-1.26s.294-.724.522-1.008a2.43 2.43 0 0 1 .828-.666c.324-.164.69-.246 1.098-.246.368 0 .68.06.936.18.26.12.492.29.696.51v-3.336h1.176Zm4.908 6.15a8.57 8.57 0 0 0-1.212.114 3.257 3.257 0 0 0-.81.228c-.208.096-.358.21-.45.342a.722.722 0 0 0-.138.432 1 1 0 0 0 .072.396c.052.108.12.198.204.27.088.068.19.118.306.15.116.032.242.048.378.048a2.083 2.083 0 0 0 .918-.204c.132-.068.258-.15.378-.246s.238-.206.354-.33v-1.2Zm-3.432-2.538c.34-.324.708-.566 1.104-.726.4-.16.838-.24 1.314-.24.348 0 .656.058.924.174.268.112.494.27.678.474.184.204.322.448.414.732.096.284.144.598.144.942V131h-.522a.52.52 0 0 1-.264-.054.41.41 0 0 1-.144-.216l-.126-.534c-.156.144-.31.272-.462.384a3.21 3.21 0 0 1-.48.282c-.164.076-.34.134-.528.174-.188.04-.396.06-.624.06-.24 0-.466-.032-.678-.096a1.464 1.464 0 0 1-.918-.816 1.79 1.79 0 0 1-.132-.714c0-.24.064-.47.192-.69.132-.224.344-.424.636-.6.296-.176.68-.32 1.152-.432.476-.112 1.06-.176 1.752-.192v-.444c0-.46-.098-.804-.294-1.032-.196-.228-.484-.342-.864-.342-.256 0-.472.032-.648.096a2.482 2.482 0 0 0-.45.216c-.124.076-.234.146-.33.21a.497.497 0 0 1-.288.096.346.346 0 0 1-.21-.066.57.57 0 0 1-.138-.156l-.21-.378Zm7.97 5.34c-.491 0-.871-.138-1.14-.414-.263-.276-.395-.67-.395-1.182v-3.648h-.708a.263.263 0 0 1-.174-.06c-.044-.044-.066-.108-.066-.192v-.474l.99-.138.264-1.818a.275.275 0 0 1 .09-.156.272.272 0 0 1 .18-.06h.594V125h1.728v.852h-1.728v3.57c0 .24.058.42.174.54a.63.63 0 0 0 .456.174c.108 0 .2-.014.276-.042.08-.028.148-.058.204-.09.056-.036.104-.068.144-.096a.195.195 0 0 1 .108-.042c.04 0 .07.01.09.03a.26.26 0 0 1 .072.084l.348.564c-.192.176-.42.312-.684.408a2.387 2.387 0 0 1-.822.144ZM52 128.294a8.57 8.57 0 0 0-1.212.114 3.257 3.257 0 0 0-.81.228c-.208.096-.358.21-.45.342a.722.722 0 0 0-.138.432 1 1 0 0 0 .072.396c.052.108.12.198.204.27.088.068.19.118.306.15.116.032.242.048.378.048a2.083 2.083 0 0 0 .918-.204c.132-.068.258-.15.378-.246s.238-.206.354-.33v-1.2Zm-3.432-2.538c.34-.324.708-.566 1.104-.726.4-.16.838-.24 1.314-.24.348 0 .656.058.924.174.268.112.494.27.678.474.184.204.322.448.414.732.096.284.144.598.144.942V131h-.522a.52.52 0 0 1-.264-.054.41.41 0 0 1-.144-.216l-.126-.534c-.156.144-.31.272-.462.384a3.21 3.21 0 0 1-.48.282c-.164.076-.34.134-.528.174-.188.04-.396.06-.624.06-.24 0-.466-.032-.678-.096a1.464 1.464 0 0 1-.918-.816 1.79 1.79 0 0 1-.132-.714c0-.24.064-.47.192-.69.132-.224.344-.424.636-.6.296-.176.68-.32 1.152-.432.476-.112 1.06-.176 1.752-.192v-.444c0-.46-.098-.804-.294-1.032-.196-.228-.484-.342-.864-.342-.256 0-.472.032-.648.096a2.482 2.482 0 0 0-.45.216c-.124.076-.234.146-.33.21a.497.497 0 0 1-.288.096.346.346 0 0 1-.21-.066.57.57 0 0 1-.138-.156l-.21-.378ZM58.15 131v-5.136l-.636-.078a.595.595 0 0 1-.228-.096.254.254 0 0 1-.084-.204V125h.948v-.552c0-.348.05-.658.15-.93.1-.272.242-.502.426-.69a1.8 1.8 0 0 1 .672-.432c.264-.1.56-.15.888-.15.276 0 .53.04.762.12l-.024.588a.183.183 0 0 1-.048.12.275.275 0 0 1-.114.054.842.842 0 0 1-.168.024h-.21c-.18 0-.344.022-.492.066a.88.88 0 0 0-.378.222 1.02 1.02 0 0 0-.24.414 2.018 2.018 0 0 0-.084.63V125H61v.852h-1.674V131H58.15Zm6.239-6.192c.448 0 .852.074 1.212.222.364.144.672.354.924.63.256.272.452.602.588.99.136.384.204.816.204 1.296 0 .48-.068.914-.204 1.302a2.75 2.75 0 0 1-.588.99c-.252.272-.56.482-.924.63-.36.144-.764.216-1.212.216-.452 0-.86-.072-1.224-.216a2.619 2.619 0 0 1-.924-.63 2.82 2.82 0 0 1-.594-.99 3.918 3.918 0 0 1-.204-1.302c0-.48.068-.912.204-1.296a2.82 2.82 0 0 1 .594-.99c.256-.276.564-.486.924-.63a3.223 3.223 0 0 1 1.224-.222Zm0 5.364c.576 0 1.006-.194 1.29-.582.284-.388.426-.934.426-1.638 0-.704-.142-1.25-.426-1.638-.284-.392-.714-.588-1.29-.588-.584 0-1.02.196-1.308.588-.284.388-.426.934-.426 1.638 0 .704.142 1.25.426 1.638.288.388.724.582 1.308.582Zm9.304-5.268V131h-.702c-.16 0-.264-.078-.312-.234l-.084-.612a4.13 4.13 0 0 1-.414.384 2.688 2.688 0 0 1-.462.3c-.164.08-.338.142-.522.186a2.347 2.347 0 0 1-.594.072c-.336 0-.632-.056-.888-.168a1.779 1.779 0 0 1-.636-.468 2.071 2.071 0 0 1-.39-.732 3.172 3.172 0 0 1-.132-.942v-3.882h1.176v3.882c0 .436.1.776.3 1.02.2.24.506.36.918.36.3 0 .58-.07.84-.21.26-.144.504-.34.732-.588v-4.464h1.17Zm2.73.846c.133-.14.27-.268.415-.384a2.528 2.528 0 0 1 .978-.486c.188-.048.388-.072.6-.072.336 0 .63.056.882.168.256.112.47.27.642.474.172.2.302.442.39.726.088.284.132.598.132.942V131h-1.176v-3.882c0-.436-.1-.774-.3-1.014-.2-.244-.506-.366-.918-.366-.3 0-.582.072-.846.216-.26.14-.502.332-.726.576V131h-1.17v-6.096h.702c.164 0 .266.078.306.234l.09.612Zm9.548.63c-.192-.252-.4-.428-.624-.528-.22-.1-.468-.15-.744-.15-.536 0-.952.194-1.248.582-.292.384-.438.946-.438 1.686 0 .388.032.72.096.996.068.272.164.496.288.672.128.172.284.3.468.384.184.08.392.12.624.12.34 0 .634-.076.882-.228.248-.152.48-.366.696-.642v-2.892Zm1.176-4.236V131h-.708c-.164 0-.266-.078-.306-.234l-.102-.702c-.26.308-.556.556-.888.744a2.29 2.29 0 0 1-1.14.276c-.348 0-.664-.068-.948-.204a2.009 2.009 0 0 1-.72-.594c-.2-.264-.354-.59-.462-.978a5.004 5.004 0 0 1-.162-1.338c0-.452.06-.872.18-1.26s.294-.724.522-1.008a2.43 2.43 0 0 1 .828-.666c.324-.164.69-.246 1.098-.246.368 0 .68.06.936.18.26.12.492.29.696.51v-3.336h1.176Z"></path></svg>