<svg xmlns="http://www.w3.org/2000/svg" width="28" height="28" fill="none"><path fill="#333" d="m23.413 25.301-7.425-7.435a8.07 8.07 0 0 1-5.038 1.726c-2.408 0-4.446-.835-6.114-2.505-1.669-1.671-2.503-3.712-2.503-6.124 0-2.412.834-4.454 2.503-6.125 1.668-1.67 3.706-2.505 6.114-2.505 2.409 0 4.448.835 6.116 2.505 1.668 1.671 2.502 3.713 2.502 6.125a8.1 8.1 0 0 1-1.724 5.045l7.458 7.468c.243.243.364.542.364.896s-.132.664-.397.93c-.243.243-.553.364-.928.364-.376 0-.685-.121-.928-.365ZM10.95 16.937c1.658 0 3.067-.58 4.227-1.742 1.16-1.162 1.74-2.573 1.74-4.232 0-1.66-.58-3.07-1.74-4.233-1.16-1.161-2.57-1.742-4.227-1.742-1.657 0-3.066.58-4.226 1.742-1.16 1.162-1.74 2.573-1.74 4.233 0 1.66.58 3.07 1.74 4.232 1.16 1.162 2.57 1.742 4.226 1.742Z"/></svg>